<svg width="55" height="49" viewBox="0 0 55 49" fill="none" xmlns="http://www.w3.org/2000/svg">
<path d="M3.51123 28.0548C3.64295 28.055 3.76945 28.0033 3.86323 27.9108L4.61623 27.1578C4.67354 27.1148 4.72095 27.06 4.75523 26.9971C4.78952 26.9342 4.8099 26.8647 4.81497 26.7933C4.82005 26.7218 4.80972 26.6501 4.78467 26.583C4.75962 26.5159 4.72044 26.4549 4.66979 26.4043C4.61913 26.3536 4.55818 26.3144 4.49107 26.2894C4.42396 26.2643 4.35224 26.254 4.28079 26.2591C4.20933 26.2641 4.1398 26.2845 4.07691 26.3188C4.01401 26.3531 3.95921 26.4005 3.91623 26.4578L3.16823 27.2108C3.09925 27.2796 3.0522 27.3674 3.03305 27.4629C3.0139 27.5585 3.0235 27.6576 3.06063 27.7477C3.09776 27.8378 3.16076 27.9148 3.24167 27.9691C3.32259 28.0235 3.41778 28.0526 3.51523 28.0528L3.51123 28.0548Z" fill="#0B0B0C"/>
<path d="M0.147929 30.928C0.241394 31.0196 0.367052 31.0709 0.497929 31.0709C0.628805 31.0709 0.754465 31.0196 0.847929 30.928L1.59593 30.175C1.66814 30.0787 1.7032 29.9596 1.69467 29.8396C1.68614 29.7195 1.63459 29.6066 1.54948 29.5215C1.46438 29.4363 1.35143 29.3848 1.23137 29.3763C1.11132 29.3677 0.992215 29.4028 0.895929 29.475L0.142929 30.228C0.0513156 30.3215 0 30.4471 0 30.578C0 30.7089 0.0513156 30.8345 0.142929 30.928H0.147929Z" fill="#0B0B0C"/>
<path d="M0.146835 26.4613C0.0552219 26.5548 0.00390625 26.6804 0.00390625 26.8113C0.00390625 26.9422 0.0552219 27.0678 0.146835 27.1613L0.899836 27.9143C0.945798 27.9602 1.00036 27.9967 1.06042 28.0216C1.12047 28.0465 1.18483 28.0593 1.24984 28.0593C1.31484 28.0593 1.3792 28.0465 1.43925 28.0216C1.49931 27.9967 1.55387 27.9602 1.59984 27.9143C1.6458 27.8683 1.68226 27.8138 1.70713 27.7537C1.73201 27.6937 1.74481 27.6293 1.74481 27.5643C1.74481 27.4993 1.73201 27.4349 1.70713 27.3749C1.68226 27.3148 1.6458 27.2602 1.59984 27.2143L0.851835 26.4613C0.758371 26.3697 0.632711 26.3184 0.501835 26.3184C0.370959 26.3184 0.2453 26.3697 0.151835 26.4613H0.146835Z" fill="#0B0B0C"/>
<path d="M3.16359 30.175L3.91159 30.928C3.95458 30.9853 4.00937 31.0327 4.07227 31.067C4.13516 31.1013 4.20469 31.1217 4.27615 31.1267C4.34761 31.1318 4.41932 31.1215 4.48643 31.0964C4.55355 31.0714 4.61449 31.0322 4.66515 30.9816C4.7158 30.9309 4.75498 30.87 4.78003 30.8028C4.80508 30.7357 4.81541 30.664 4.81034 30.5926C4.80526 30.5211 4.78488 30.4516 4.7506 30.3887C4.71631 30.3258 4.6689 30.271 4.61159 30.228L3.85859 29.475C3.76231 29.4028 3.6432 29.3677 3.52315 29.3763C3.4031 29.3848 3.29015 29.4363 3.20504 29.5215C3.11993 29.6066 3.06838 29.7195 3.05985 29.8396C3.05132 29.9596 3.08638 30.0787 3.15859 30.175H3.16359Z" fill="#0B0B0C"/>
<path d="M45.1824 7.57591C45.3141 7.57615 45.4406 7.5244 45.5344 7.43191L46.2874 6.67891C46.3596 6.58262 46.3947 6.46352 46.3861 6.34346C46.3776 6.22341 46.3261 6.11046 46.2409 6.02535C46.1558 5.94025 46.0429 5.8887 45.9228 5.88016C45.8028 5.87163 45.6837 5.90669 45.5874 5.97891L44.8394 6.72691C44.772 6.79674 44.7264 6.88467 44.7082 6.97997C44.6899 7.07527 44.6998 7.17383 44.7365 7.26362C44.7733 7.35341 44.8354 7.43056 44.9153 7.48566C44.9952 7.54075 45.0894 7.57142 45.1864 7.57391L45.1824 7.57591Z" fill="#0B0B0C"/>
<path d="M41.8206 10.4599C41.9141 10.5515 42.0398 10.6028 42.1706 10.6028C42.3015 10.6028 42.4272 10.5515 42.5206 10.4599L43.2686 9.70685C43.3321 9.61156 43.3609 9.49737 43.3503 9.38337C43.3397 9.26937 43.2903 9.16246 43.2103 9.08051C43.1304 8.99856 43.0247 8.94653 42.911 8.93313C42.7973 8.91972 42.6824 8.94575 42.5856 9.00685L41.8326 9.75985C41.7394 9.85174 41.6859 9.97652 41.6837 10.1074C41.6814 10.2383 41.7306 10.3648 41.8206 10.4599Z" fill="#0B0B0C"/>
<path d="M42.5867 7.44878C42.6297 7.50609 42.6844 7.55349 42.7473 7.58778C42.8102 7.62207 42.8798 7.64244 42.9512 7.64752C43.0227 7.6526 43.0944 7.64227 43.1615 7.61722C43.2286 7.59217 43.2896 7.55299 43.3402 7.50234C43.3909 7.45168 43.4301 7.39073 43.4551 7.32362C43.4802 7.25651 43.4905 7.18479 43.4854 7.11334C43.4803 7.04188 43.46 6.97235 43.4257 6.90945C43.3914 6.84656 43.344 6.79176 43.2867 6.74878L42.5387 6.00078C42.4957 5.94347 42.4409 5.89607 42.378 5.86178C42.3151 5.82749 42.2456 5.80712 42.1741 5.80204C42.1027 5.79696 42.0309 5.8073 41.9638 5.83235C41.8967 5.8574 41.8358 5.89657 41.7851 5.94723C41.7345 5.99788 41.6953 6.05883 41.6702 6.12594C41.6452 6.19306 41.6349 6.26477 41.6399 6.33623C41.645 6.40768 41.6654 6.47721 41.6997 6.54011C41.734 6.60301 41.7814 6.6578 41.8387 6.70078L42.5867 7.44878Z" fill="#0B0B0C"/>
<path d="M44.8359 9.70625L45.5839 10.4593C45.6268 10.5166 45.6816 10.564 45.7445 10.5983C45.8074 10.6325 45.877 10.6529 45.9484 10.658C46.0199 10.6631 46.0916 10.6527 46.1587 10.6277C46.2258 10.6026 46.2868 10.5635 46.3374 10.5128C46.3881 10.4621 46.4272 10.4012 46.4523 10.3341C46.4773 10.267 46.4877 10.1953 46.4826 10.1238C46.4775 10.0523 46.4571 9.98282 46.4229 9.91992C46.3886 9.85702 46.3412 9.80223 46.2839 9.75925L45.5559 9.00625C45.4596 8.93403 45.3405 8.89898 45.2204 8.90751C45.1004 8.91604 44.9874 8.96759 44.9023 9.0527C44.8172 9.1378 44.7657 9.25075 44.7571 9.3708C44.7486 9.49086 44.7836 9.60996 44.8559 9.70625H44.8359Z" fill="#0B0B0C"/>
<path d="M13.5986 6.14856C13.7304 6.1488 13.8569 6.09706 13.9506 6.00456L14.7036 5.25156C14.761 5.20858 14.8084 5.15379 14.8426 5.09089C14.8769 5.02799 14.8973 4.95846 14.9024 4.88701C14.9075 4.81555 14.8971 4.74384 14.8721 4.67672C14.847 4.60961 14.8079 4.54866 14.7572 4.49801C14.7065 4.44736 14.6456 4.40818 14.5785 4.38313C14.5114 4.35808 14.4397 4.34774 14.3682 4.35282C14.2967 4.3579 14.2272 4.37827 14.1643 4.41256C14.1014 4.44685 14.0466 4.49425 14.0036 4.55156L13.2506 5.30456C13.1846 5.37491 13.1404 5.46285 13.1232 5.55777C13.106 5.6527 13.1167 5.75057 13.1539 5.83957C13.1911 5.92858 13.2533 6.00492 13.3329 6.05939C13.4125 6.11386 13.5062 6.14413 13.6026 6.14656L13.5986 6.14856Z" fill="#0B0B0C"/>
<path d="M10.2367 9.02175C10.3301 9.11336 10.4558 9.16468 10.5867 9.16468C10.7176 9.16468 10.8432 9.11336 10.9367 9.02175L11.6897 8.26875C11.7619 8.17246 11.797 8.05336 11.7884 7.93331C11.7799 7.81325 11.7283 7.7003 11.6432 7.6152C11.5581 7.53009 11.4452 7.47854 11.3251 7.47001C11.2051 7.46148 11.086 7.49654 10.9897 7.56875L10.2367 8.32175C10.1451 8.41522 10.0938 8.54087 10.0938 8.67175C10.0938 8.80263 10.1451 8.92829 10.2367 9.02175Z" fill="#0B0B0C"/>
<path d="M10.9882 6.00847C11.081 6.10129 11.2069 6.15344 11.3382 6.15344C11.4694 6.15344 11.5953 6.10129 11.6882 6.00847C11.781 5.91564 11.8331 5.78974 11.8331 5.65847C11.8331 5.52719 11.781 5.40129 11.6882 5.30847L10.9352 4.55547C10.8922 4.49816 10.8374 4.45076 10.7745 4.41647C10.7116 4.38218 10.6421 4.3618 10.5706 4.35673C10.4991 4.35165 10.4274 4.36198 10.3603 4.38703C10.2932 4.41208 10.2323 4.45126 10.1816 4.50192C10.1309 4.55257 10.0918 4.61352 10.0667 4.68063C10.0417 4.74774 10.0313 4.81946 10.0364 4.89091C10.0415 4.96237 10.0619 5.0319 10.0962 5.0948C10.1304 5.15769 10.1778 5.21249 10.2352 5.25547L10.9882 6.00847Z" fill="#0B0B0C"/>
<path d="M13.2484 8.27047L14.0014 9.02347C14.0444 9.08078 14.0992 9.12818 14.1621 9.16247C14.225 9.19676 14.2945 9.21713 14.366 9.22221C14.4375 9.22729 14.5092 9.21695 14.5763 9.1919C14.6434 9.16685 14.7043 9.12768 14.755 9.07702C14.8056 9.02637 14.8448 8.96542 14.8699 8.89831C14.8949 8.83119 14.9053 8.75948 14.9002 8.68802C14.8951 8.61657 14.8747 8.54704 14.8404 8.48414C14.8062 8.42125 14.7587 8.36645 14.7014 8.32347L13.9484 7.58047C13.8522 7.50825 13.733 7.4732 13.613 7.48173C13.4929 7.49026 13.38 7.54181 13.2949 7.62692C13.2098 7.71202 13.1582 7.82497 13.1497 7.94502C13.1412 8.06508 13.1762 8.18418 13.2484 8.28047V8.27047Z" fill="#0B0B0C"/>
<path d="M46.1621 41.1702C46.1621 41.2877 46.1969 41.4025 46.2622 41.5002C46.3275 41.5979 46.4203 41.674 46.5288 41.719C46.6373 41.7639 46.7568 41.7757 46.872 41.7528C46.9872 41.7298 47.0931 41.6733 47.1761 41.5902C47.2592 41.5071 47.3158 41.4013 47.3387 41.2861C47.3616 41.1708 47.3499 41.0514 47.3049 40.9429C47.2599 40.8343 47.1838 40.7416 47.0861 40.6763C46.9884 40.611 46.8736 40.5762 46.7561 40.5762C46.5986 40.5762 46.4475 40.6388 46.3361 40.7502C46.2247 40.8615 46.1621 41.0126 46.1621 41.1702Z" fill="#0B0B0C"/>
<path d="M53.2466 10.9651C53.2466 10.8476 53.2118 10.7328 53.1465 10.6351C53.0812 10.5374 52.9884 10.4613 52.8799 10.4163C52.7714 10.3714 52.6519 10.3596 52.5367 10.3825C52.4215 10.4054 52.3156 10.462 52.2326 10.5451C52.1495 10.6281 52.0929 10.734 52.07 10.8492C52.0471 10.9644 52.0588 11.0839 52.1038 11.1924C52.1488 11.3009 52.2249 11.3937 52.3226 11.459C52.4203 11.5243 52.5351 11.5591 52.6526 11.5591C52.8101 11.5591 52.9612 11.4965 53.0726 11.3851C53.184 11.2737 53.2466 11.1226 53.2466 10.9651Z" fill="#0B0B0C"/>
<path d="M41.186 27.2933C41.1879 27.1747 41.1544 27.0584 41.0896 26.9591C41.0249 26.8598 40.9319 26.7821 40.8227 26.7361C40.7135 26.69 40.593 26.6777 40.4767 26.7008C40.3604 26.7238 40.2537 26.7811 40.1702 26.8652C40.0868 26.9494 40.0304 27.0566 40.0084 27.1731C39.9864 27.2896 39.9997 27.41 40.0467 27.5188C40.0936 27.6276 40.1721 27.7199 40.2719 27.7838C40.3718 27.8477 40.4885 27.8802 40.607 27.8773C40.7602 27.8734 40.906 27.8105 41.0139 27.7017C41.1218 27.5928 41.1834 27.4465 41.186 27.2933Z" fill="#0B0B0C"/>
<path d="M38.05 4.35595C38.1679 4.35694 38.2834 4.32282 38.3818 4.25793C38.4803 4.19304 38.5572 4.10032 38.6028 3.99158C38.6483 3.88284 38.6605 3.763 38.6378 3.64731C38.615 3.53162 38.5583 3.42532 38.475 3.34195C38.3916 3.25858 38.2853 3.2019 38.1696 3.17914C38.0539 3.15638 37.9341 3.16857 37.8253 3.21414C37.7166 3.25972 37.6239 3.33663 37.559 3.43507C37.4941 3.53352 37.46 3.64905 37.461 3.76695C37.4623 3.92276 37.5247 4.07181 37.6349 4.18199C37.7451 4.29217 37.8941 4.35464 38.05 4.35595Z" fill="#0B0B0C"/>
<path d="M14.4064 13.4004C14.2694 13.4004 14.1366 13.4478 14.0306 13.5345C13.9245 13.6212 13.8517 13.7419 13.8244 13.8761C13.7971 14.0104 13.8171 14.15 13.8809 14.2712C13.9448 14.3924 14.0485 14.4878 14.1747 14.5413C14.3008 14.5948 14.4416 14.603 14.5731 14.5646C14.7046 14.5261 14.8187 14.4435 14.8963 14.3305C14.9738 14.2175 15.0099 14.0813 14.9984 13.9447C14.987 13.8082 14.9287 13.6799 14.8334 13.5814C14.778 13.5241 14.7117 13.4786 14.6383 13.4475C14.565 13.4164 14.4861 13.4004 14.4064 13.4004Z" fill="#0B0B0C"/>
<path d="M6.64089 34.4553C6.77703 34.4542 6.90856 34.4059 7.01312 34.3187C7.11767 34.2315 7.18879 34.1108 7.21438 33.977C7.23997 33.8433 7.21844 33.7049 7.15347 33.5852C7.08849 33.4656 6.98407 33.3722 6.85798 33.3208C6.73189 33.2695 6.5919 33.2634 6.46184 33.3036C6.33177 33.3439 6.21966 33.4279 6.14457 33.5415C6.06948 33.655 6.03605 33.7911 6.04996 33.9265C6.06387 34.062 6.12427 34.1884 6.22089 34.2843C6.33276 34.3946 6.48378 34.4561 6.64089 34.4553Z" fill="#0B0B0C"/>
<path d="M2.18359 40.1155C2.18359 40.233 2.21843 40.3478 2.2837 40.4455C2.34897 40.5432 2.44174 40.6193 2.55028 40.6643C2.65882 40.7092 2.77825 40.721 2.89348 40.6981C3.0087 40.6752 3.11454 40.6186 3.19761 40.5355C3.28069 40.4524 3.33726 40.3466 3.36018 40.2314C3.3831 40.1161 3.37134 39.9967 3.32638 39.8882C3.28142 39.7796 3.20528 39.6869 3.1076 39.6216C3.00992 39.5563 2.89508 39.5215 2.77759 39.5215C2.62006 39.5215 2.46897 39.5841 2.35757 39.6955C2.24618 39.8069 2.18359 39.9579 2.18359 40.1155Z" fill="#0B0B0C"/>
<path d="M3.95753 9.40845C3.95753 9.29097 3.92269 9.17613 3.85742 9.07845C3.79216 8.98076 3.69938 8.90463 3.59085 8.85967C3.48231 8.81471 3.36287 8.80295 3.24765 8.82587C3.13242 8.84879 3.02658 8.90536 2.94351 8.98843C2.86044 9.0715 2.80386 9.17734 2.78095 9.29257C2.75803 9.40779 2.76979 9.52723 2.81475 9.63577C2.85971 9.7443 2.93584 9.83707 3.03352 9.90234C3.13121 9.96761 3.24605 10.0025 3.36353 10.0025C3.52107 10.0025 3.67216 9.93987 3.78355 9.82847C3.89495 9.71708 3.95753 9.56599 3.95753 9.40845Z" fill="#0B0B0C"/>
<path d="M3.14453 36.6055C3.14453 36.7381 3.19721 36.8653 3.29098 36.959C3.38475 37.0528 3.51192 37.1055 3.64453 37.1055C7.03782 37.153 10.3602 38.0835 13.2845 39.8055C13.3954 39.8491 13.5182 39.8517 13.6309 39.8128C13.7435 39.7739 13.8385 39.696 13.8988 39.5933C13.9591 39.4905 13.9808 39.3696 13.9598 39.2523C13.9388 39.135 13.8767 39.029 13.7845 38.9535C10.7072 37.1402 7.211 36.1587 3.63953 36.1055C3.50779 36.1068 3.3819 36.16 3.28921 36.2537C3.19652 36.3473 3.14452 36.4737 3.14453 36.6055Z" fill="#0B0B0C"/>
<path d="M54.1502 36.6055C54.1502 36.4729 54.0975 36.3457 54.0037 36.2519C53.9099 36.1581 53.7828 36.1055 53.6502 36.1055C52.96 36.108 52.2706 36.1494 51.5852 36.2295C51.5146 36.2252 51.4439 36.2359 51.3777 36.2609C51.3115 36.286 51.2515 36.3247 51.2014 36.3747C51.1513 36.4247 51.1125 36.4847 51.0873 36.5508C51.0622 36.617 51.0514 36.6876 51.0556 36.7583C51.0598 36.8289 51.0789 36.8978 51.1117 36.9604C51.1445 37.0231 51.1902 37.0781 51.2459 37.1218C51.3015 37.1655 51.3658 37.1969 51.4344 37.2139C51.5031 37.2309 51.5746 37.2331 51.6442 37.2205H51.6982C52.3456 37.1421 52.997 37.1024 53.6492 37.1015C53.7818 37.1015 53.9089 37.0488 54.0027 36.955C54.0965 36.8613 54.1492 36.7341 54.1492 36.6015L54.1502 36.6055Z" fill="#0B0B0C"/>
<path d="M48.1229 37.3537C48.1095 37.3109 48.0878 37.2712 48.0589 37.2369C48.0301 37.2025 47.9947 37.1743 47.9549 37.1537C47.9155 37.1335 47.8725 37.1213 47.8283 37.1181C47.7842 37.1148 47.7398 37.1205 47.6979 37.1347C44.1579 38.3347 40.5879 41.1737 40.5879 44.8227C40.5879 44.9116 40.6232 44.9968 40.686 45.0596C40.7488 45.1224 40.834 45.1577 40.9229 45.1577C41.0117 45.1577 41.0969 45.1224 41.1598 45.0596C41.2226 44.9968 41.2579 44.9116 41.2579 44.8227C41.2579 41.5147 44.6069 38.8997 47.9089 37.7807C47.9934 37.7517 48.0631 37.6908 48.1031 37.6109C48.1432 37.5311 48.1502 37.4387 48.1229 37.3537Z" fill="#0B0B0C"/>
<path d="M6.70942 28.5208C6.64435 28.5114 6.57806 28.5148 6.51432 28.531C6.45059 28.5472 6.39066 28.5757 6.33797 28.615C6.23154 28.6945 6.16102 28.8129 6.14192 28.9443C6.12283 29.0757 6.15672 29.2094 6.23614 29.3158C6.31556 29.4222 6.43401 29.4927 6.56542 29.5118C11.0383 30.1743 15.1254 32.4183 18.0851 35.8367C21.0448 39.255 22.6809 43.6212 22.6964 48.1428C22.6869 48.2135 22.6926 48.2854 22.7131 48.3537C22.7336 48.422 22.7685 48.4851 22.8155 48.5388C22.8624 48.5925 22.9203 48.6355 22.9852 48.665C23.0501 48.6945 23.1206 48.7098 23.1919 48.7098C23.2632 48.7098 23.3337 48.6945 23.3987 48.665C23.4636 48.6355 23.5215 48.5925 23.5684 48.5388C23.6153 48.4851 23.6502 48.422 23.6708 48.3537C23.6913 48.2854 23.697 48.2135 23.6874 48.1428C23.6746 43.3815 21.9541 38.7827 18.8387 35.1821C15.7232 31.5815 11.4195 29.2179 6.70942 28.5208Z" fill="#0B0B0C"/>
<path d="M33.6094 48.1294C33.6256 48.2493 33.6847 48.3593 33.7758 48.4389C33.867 48.5185 33.9839 48.5624 34.1049 48.5624C34.2259 48.5624 34.3428 48.5185 34.4339 48.4389C34.525 48.3593 34.5842 48.2493 34.6004 48.1294C34.6004 43.138 36.5832 38.351 40.1126 34.8216C43.6421 31.2922 48.429 29.3094 53.4204 29.3094C53.5403 29.2932 53.6503 29.234 53.7299 29.1429C53.8095 29.0518 53.8534 28.9349 53.8534 28.8139C53.8534 28.6929 53.8095 28.5759 53.7299 28.4848C53.6503 28.3937 53.5403 28.3346 53.4204 28.3184C48.1662 28.3184 43.1272 30.4056 39.4119 34.1209C35.6966 37.8362 33.6094 42.8752 33.6094 48.1294Z" fill="#0B0B0C"/>
<path d="M31.043 43.0787C31.043 43.198 31.0904 43.3125 31.1748 43.3969C31.2592 43.4812 31.3736 43.5287 31.493 43.5287C31.6123 43.5287 31.7268 43.4812 31.8112 43.3969C31.8956 43.3125 31.943 43.198 31.943 43.0787C31.943 33.6127 36.793 25.0727 44.033 21.8297C44.082 21.8089 44.1262 21.7781 44.1627 21.7393C44.1992 21.7005 44.2272 21.6545 44.245 21.6043C44.2628 21.554 44.2699 21.5007 44.266 21.4475C44.262 21.3944 44.247 21.3427 44.222 21.2957C44.1629 21.199 44.0709 21.1268 43.9629 21.0925C43.8548 21.0581 43.7381 21.0639 43.634 21.1087C36.09 24.4837 31.043 33.3137 31.043 43.0787Z" fill="#0B0B0C"/>
<path d="M11.4825 20.6465C11.4606 20.7025 11.4508 20.7625 11.4536 20.8225C11.4564 20.8826 11.4719 20.9414 11.499 20.9951C11.5261 21.0488 11.5641 21.0961 11.6108 21.1341C11.6574 21.1721 11.7115 21.1998 11.7695 21.2155C20.5405 24.1665 26.6625 33.9835 26.6625 45.0915C26.6787 45.2114 26.7378 45.3214 26.829 45.4011C26.9201 45.4807 27.037 45.5246 27.158 45.5246C27.279 45.5246 27.3959 45.4807 27.487 45.4011C27.5782 45.3214 27.6373 45.2114 27.6535 45.0915C27.6535 33.6205 21.2695 23.4735 12.1215 20.3855C11.9974 20.3443 11.8627 20.3486 11.7415 20.3975C11.684 20.4198 11.6315 20.4533 11.587 20.496C11.5426 20.5388 11.507 20.5899 11.4825 20.6465Z" fill="#0B0B0C"/>
<path d="M28.6459 24.2813C28.7785 24.2813 28.9057 24.2286 28.9994 24.1348C29.0932 24.041 29.1459 23.9139 29.1459 23.7813V12.5533C29.1554 12.4826 29.1498 12.4107 29.1292 12.3424C29.1087 12.2741 29.0738 12.211 29.0269 12.1573C28.9799 12.1036 28.9221 12.0606 28.8571 12.0311C28.7922 12.0016 28.7217 11.9863 28.6504 11.9863C28.5791 11.9863 28.5086 12.0016 28.4437 12.0311C28.3787 12.0606 28.3208 12.1036 28.2739 12.1573C28.227 12.211 28.1921 12.2741 28.1716 12.3424C28.151 12.4107 28.1453 12.4826 28.1549 12.5533V23.7863C28.1562 23.9165 28.2082 24.041 28.2999 24.1335C28.3916 24.2259 28.5157 24.2789 28.6459 24.2813Z" fill="#0B0B0C"/>
<path d="M28.149 29.3673C28.1652 29.4873 28.2244 29.5973 28.3155 29.6769C28.4066 29.7565 28.5235 29.8004 28.6445 29.8004C28.7655 29.8004 28.8825 29.7565 28.9736 29.6769C29.0647 29.5973 29.1238 29.4873 29.14 29.3673V26.5494C29.1496 26.4787 29.1439 26.4068 29.1234 26.3385C29.1028 26.2702 29.0679 26.2071 29.021 26.1534C28.9741 26.0997 28.9162 26.0566 28.8513 26.0272C28.7863 25.9977 28.7158 25.9824 28.6445 25.9824C28.5732 25.9824 28.5027 25.9977 28.4378 26.0272C28.3729 26.0566 28.315 26.0997 28.2681 26.1534C28.2211 26.2071 28.1862 26.2702 28.1657 26.3385C28.1452 26.4068 28.1395 26.4787 28.149 26.5494V29.3673Z" fill="#0B0B0C"/>
<path d="M20.5526 15.9265C20.6115 15.9257 20.6699 15.9156 20.7256 15.8965C20.8473 15.8497 20.946 15.7573 21.0006 15.6389C21.0551 15.5204 21.0612 15.3854 21.0176 15.2625L19.7306 11.7965C19.6745 11.6886 19.581 11.605 19.4676 11.5611C19.3543 11.5172 19.2288 11.5161 19.1147 11.558C19.0006 11.5999 18.9057 11.682 18.8477 11.7888C18.7897 11.8956 18.7726 12.0199 18.7996 12.1385L20.0876 15.6075C20.124 15.7013 20.1879 15.7819 20.2709 15.8388C20.3538 15.8957 20.452 15.9263 20.5526 15.9265Z" fill="#0B0B0C"/>
<path d="M21.6189 18.313C21.4957 18.3582 21.3952 18.45 21.3391 18.5686C21.2829 18.6872 21.2757 18.8231 21.3189 18.947L24.4189 27.327C24.4541 27.4225 24.5175 27.5049 24.6008 27.5633C24.6841 27.6217 24.7832 27.6534 24.8849 27.654C24.9443 27.6539 25.0031 27.642 25.0579 27.619C25.1796 27.5723 25.2783 27.4798 25.3328 27.3614C25.3874 27.243 25.3935 27.1079 25.3499 26.985L22.2499 18.605C22.2031 18.484 22.1112 18.3859 21.9934 18.3314C21.8757 18.2769 21.7414 18.2703 21.6189 18.313Z" fill="#0B0B0C"/>
<path d="M26.5168 30.1565C26.501 30.0872 26.4706 30.0221 26.4277 29.9655C26.3848 29.9088 26.3303 29.862 26.2678 29.8281C26.2054 29.7943 26.1364 29.7741 26.0656 29.7689C25.9947 29.7637 25.9236 29.7737 25.8569 29.7982C25.7902 29.8227 25.7295 29.8612 25.6788 29.911C25.6282 29.9608 25.5887 30.0208 25.563 30.0871C25.5374 30.1533 25.5261 30.2243 25.5301 30.2952C25.534 30.3661 25.553 30.4354 25.5858 30.4985L26.9468 34.1674C26.9959 34.2851 27.0886 34.3791 27.2054 34.43C27.3222 34.4809 27.4542 34.4847 27.5738 34.4405C27.6933 34.3963 27.7912 34.3077 27.8469 34.1931C27.9026 34.0785 27.9119 33.9467 27.8728 33.8255L26.5168 30.1565Z" fill="#0B0B0C"/>
<path d="M37.385 13.6936C37.4463 13.7158 37.5114 13.7257 37.5766 13.7226C37.6417 13.7195 37.7056 13.7036 37.7645 13.6757C37.8234 13.6478 37.8763 13.6085 37.92 13.5601C37.9636 13.5117 37.9973 13.4551 38.019 13.3936L38.519 12.1156C38.5518 12.0526 38.5708 11.9833 38.5748 11.9124C38.5787 11.8415 38.5674 11.7705 38.5418 11.7042C38.5161 11.638 38.4767 11.578 38.426 11.5282C38.3753 11.4784 38.3146 11.4399 38.2479 11.4154C38.1812 11.3909 38.1101 11.3809 38.0392 11.3861C37.9684 11.3912 37.8994 11.4114 37.837 11.4453C37.7745 11.4792 37.72 11.526 37.6771 11.5827C37.6342 11.6393 37.6038 11.7044 37.588 11.7736L37.088 13.0516C37.0433 13.1762 37.0498 13.3134 37.106 13.4331C37.1622 13.5529 37.2636 13.6455 37.388 13.6906L37.385 13.6936Z" fill="#0B0B0C"/>
<path d="M36.3023 15.1936L33.4643 22.8846C33.4207 23.0075 33.4269 23.1425 33.4814 23.261C33.5359 23.3794 33.6346 23.4718 33.7563 23.5186C33.811 23.542 33.8699 23.554 33.9293 23.5536C34.0311 23.5529 34.1302 23.5213 34.2134 23.4629C34.2967 23.4044 34.3601 23.322 34.3953 23.2266L37.2333 15.5356C37.2661 15.4725 37.2851 15.4033 37.2891 15.3323C37.293 15.2614 37.2818 15.1904 37.2561 15.1242C37.2305 15.0579 37.191 14.9979 37.1403 14.9481C37.0896 14.8983 37.0289 14.8599 36.9622 14.8354C36.8956 14.8109 36.8244 14.8008 36.7535 14.806C36.6827 14.8112 36.6137 14.8314 36.5513 14.8653C36.4889 14.8991 36.4344 14.946 36.3914 15.0026C36.3485 15.0592 36.3181 15.1243 36.3023 15.1936Z" fill="#0B0B0C"/>
<path d="M30.9177 31.7102C31.0194 31.7096 31.1185 31.6779 31.2017 31.6195C31.285 31.5611 31.3485 31.4787 31.3837 31.3832L33.2837 26.2222C33.2994 26.1078 33.2749 25.9915 33.2146 25.893C33.1542 25.7945 33.0616 25.72 32.9525 25.682C32.8434 25.6441 32.7246 25.6451 32.6161 25.6849C32.5077 25.7247 32.4164 25.8007 32.3577 25.9002L30.4507 31.0412C30.4071 31.1641 30.4132 31.2992 30.4677 31.4176C30.5223 31.536 30.6209 31.6285 30.7427 31.6752C30.7979 31.699 30.8575 31.7109 30.9177 31.7102Z" fill="#0B0B0C"/>
<path d="M22.6789 7.47722C22.7015 7.57451 22.7527 7.66281 22.826 7.73071C22.8992 7.79862 22.9912 7.84303 23.0899 7.85822L25.9229 8.28922L25.7149 11.1522C25.7106 11.2499 25.7349 11.3467 25.785 11.4306C25.8351 11.5145 25.9087 11.582 25.9967 11.6245C26.0847 11.6671 26.1832 11.6829 26.2801 11.6701C26.377 11.6572 26.468 11.6162 26.5419 11.5522L28.6519 9.60622L30.7519 11.5422C30.8253 11.6108 30.9178 11.6553 31.0172 11.6698C31.1166 11.6844 31.218 11.6682 31.3079 11.6235C31.3979 11.5788 31.472 11.5077 31.5204 11.4198C31.5688 11.3318 31.5892 11.2311 31.5789 11.1312L31.3709 8.26822L34.2089 7.83722C34.3058 7.81968 34.3953 7.77393 34.4663 7.7057C34.5373 7.63747 34.5866 7.5498 34.608 7.45368C34.6293 7.35756 34.6218 7.25727 34.5864 7.16539C34.551 7.07351 34.4892 6.99414 34.4089 6.93722L32.0419 5.31722L33.4729 2.84122C33.5162 2.75515 33.5337 2.65839 33.5233 2.56259C33.513 2.4668 33.4751 2.37604 33.4144 2.30125C33.3536 2.22645 33.2726 2.1708 33.1809 2.14099C33.0893 2.11118 32.991 2.10848 32.8979 2.13322L30.1539 2.97522L29.1119 0.305219C29.0736 0.214725 29.0095 0.137515 28.9276 0.0832319C28.8457 0.028949 28.7496 0 28.6514 0C28.5531 0 28.4571 0.028949 28.3752 0.0832319C28.2933 0.137515 28.2292 0.214725 28.1909 0.305219L27.1359 2.97022L24.3949 2.12822C24.3005 2.10187 24.2004 2.10385 24.1071 2.1339C24.0139 2.16396 23.9315 2.22076 23.8702 2.29727C23.8089 2.37377 23.7715 2.46658 23.7626 2.56418C23.7536 2.66178 23.7736 2.75986 23.8199 2.84622L25.2509 5.32222L22.8839 6.94222C22.799 6.99964 22.7338 7.08175 22.6972 7.17745C22.6605 7.27314 22.6541 7.37778 22.6789 7.47722ZM26.1849 5.89722C26.2864 5.82606 26.3578 5.71975 26.3853 5.59891C26.4129 5.47807 26.3945 5.35131 26.3339 5.24322L25.3039 3.44322L27.2849 4.05222C27.4033 4.08597 27.53 4.07483 27.6407 4.02095C27.7514 3.96707 27.8384 3.87423 27.8849 3.76022L28.6479 1.83322L29.4059 3.76022C29.4524 3.87423 29.5393 3.96707 29.6501 4.02095C29.7608 4.07483 29.8875 4.08597 30.0059 4.05222L31.9869 3.44322L30.9569 5.24322C30.8963 5.35131 30.8779 5.47807 30.9055 5.59891C30.933 5.71975 31.0044 5.82606 31.1059 5.89722L32.8149 7.08122L30.7699 7.39322C30.6461 7.4127 30.534 7.47799 30.4561 7.57615C30.3781 7.67431 30.3398 7.79818 30.3489 7.92322L30.5029 9.98822L28.9829 8.56722C28.8918 8.48121 28.7712 8.43331 28.6459 8.43331C28.5206 8.43331 28.4 8.48121 28.3089 8.56722L26.7949 9.97322L26.9439 7.90822C26.9529 7.78318 26.9147 7.65931 26.8367 7.56115C26.7587 7.46299 26.6467 7.3977 26.5229 7.37822L24.4779 7.07822L26.1849 5.89722Z" fill="#EA3A51"/>
<path d="M42.5475 19.4327C42.5611 19.5311 42.6036 19.6231 42.6697 19.6972C42.7357 19.7713 42.8224 19.824 42.9185 19.8487L45.7065 20.5277L45.2455 23.3607C45.2308 23.4584 45.2458 23.5582 45.2885 23.6472C45.3312 23.7362 45.3997 23.8104 45.485 23.8601C45.5704 23.9097 45.6687 23.9326 45.7672 23.9258C45.8657 23.919 45.9598 23.8827 46.0375 23.8217L48.3055 22.0687L50.2325 24.1937C50.3004 24.2651 50.3878 24.3148 50.4838 24.3367C50.5798 24.3585 50.6801 24.3516 50.7722 24.3166C50.8642 24.2817 50.9439 24.2204 51.0013 24.1404C51.0586 24.0603 51.091 23.9651 51.0945 23.8667L51.1395 20.9987L54.0025 20.8207C54.1004 20.812 54.1936 20.7747 54.2704 20.7133C54.3472 20.652 54.4042 20.5693 54.4343 20.4757C54.4644 20.3822 54.4663 20.2818 54.4396 20.1871C54.413 20.0925 54.359 20.0079 54.2845 19.9437L52.0705 18.1207L53.7095 15.7677C53.763 15.6865 53.7916 15.5914 53.7918 15.4941C53.792 15.3968 53.7639 15.3016 53.7108 15.2201C53.6578 15.1386 53.5821 15.0743 53.493 15.0352C53.404 14.996 53.3055 14.9837 53.2095 14.9997L50.4015 15.5937L49.5895 12.8447C49.5595 12.7514 49.5027 12.6691 49.4262 12.6078C49.3497 12.5465 49.2569 12.5091 49.1593 12.5001C49.0617 12.4912 48.9636 12.5111 48.8772 12.5574C48.7909 12.6038 48.72 12.6745 48.6735 12.7607L47.3915 15.3267L44.7325 14.2467C44.638 14.2004 44.5313 14.1851 44.4277 14.2029C44.324 14.2208 44.2285 14.2709 44.155 14.3461C44.0814 14.4213 44.0334 14.5179 44.0179 14.6219C44.0024 14.726 44.0201 14.8323 44.0685 14.9257L45.2685 17.5257L42.7925 18.9327C42.7067 18.9824 42.6376 19.0564 42.594 19.1455C42.5504 19.2345 42.5342 19.3345 42.5475 19.4327ZM46.1775 18.1697C46.2866 18.108 46.3685 18.0075 46.407 17.8883C46.4455 17.769 46.4379 17.6396 46.3855 17.5257L45.5135 15.6487L47.4355 16.4267C47.5512 16.4724 47.6797 16.4733 47.796 16.4293C47.9123 16.3853 48.008 16.2995 48.0645 16.1887L48.9905 14.3367L49.5795 16.3177C49.6152 16.4366 49.6938 16.538 49.8001 16.6021C49.9064 16.6663 50.0327 16.6886 50.1545 16.6647L52.1805 16.2337L51.0065 17.9337C50.9365 18.0358 50.9069 18.1602 50.9234 18.2828C50.9398 18.4055 51.0011 18.5177 51.0955 18.5977L52.6955 19.9147L50.6325 20.0467C50.5059 20.0554 50.3873 20.1118 50.3007 20.2047C50.2142 20.2975 50.1662 20.4198 50.1665 20.5467L50.1365 22.6167L48.7445 21.0817C48.6612 20.989 48.5458 20.9313 48.4216 20.9203C48.2975 20.9094 48.1737 20.946 48.0755 21.0227L46.4325 22.2847L46.7645 20.2397C46.7832 20.117 46.7556 19.9917 46.6871 19.8881C46.6185 19.7846 46.5138 19.7103 46.3935 19.6797L44.3825 19.1797L46.1775 18.1697Z" fill="#EA3A51"/>
<path d="M0.985029 19.1594C1.01307 19.2551 1.0691 19.3402 1.1459 19.4038C1.22271 19.4674 1.31678 19.5066 1.41603 19.5163L4.26903 19.7933L4.21903 22.6613C4.21751 22.76 4.24518 22.8568 4.29856 22.9397C4.35194 23.0226 4.42864 23.0879 4.51903 23.1273C4.58036 23.1524 4.64579 23.166 4.71203 23.1673C4.84447 23.1663 4.97106 23.1127 5.06403 23.0184L7.04503 20.9584L9.25903 22.7863C9.33554 22.8486 9.42897 22.8865 9.52722 22.895C9.62548 22.9036 9.72406 22.8825 9.81021 22.8345C9.89635 22.7865 9.96612 22.7137 10.0105 22.6256C10.0548 22.5375 10.0717 22.4382 10.059 22.3404L9.69903 19.4963L12.499 18.9074C12.5944 18.8849 12.6811 18.835 12.7483 18.7637C12.8155 18.6925 12.8603 18.603 12.8772 18.5065C12.894 18.41 12.8821 18.3107 12.843 18.2209C12.8038 18.1311 12.7392 18.0547 12.657 18.0013L10.205 16.5153L11.499 13.9543C11.5414 13.8654 11.5566 13.766 11.5427 13.6685C11.5288 13.5709 11.4863 13.4797 11.4208 13.4062C11.3552 13.3327 11.2693 13.2802 11.174 13.2554C11.0787 13.2305 10.9782 13.2343 10.885 13.2663L8.19603 14.2573L7.02703 11.6473C6.98408 11.5586 6.91588 11.4846 6.83099 11.4346C6.7461 11.3845 6.6483 11.3606 6.5499 11.366C6.45149 11.3713 6.35685 11.4056 6.27788 11.4646C6.19891 11.5235 6.13912 11.6045 6.10603 11.6973L5.20603 14.4214L2.42303 13.7334C2.32675 13.7079 2.22497 13.7125 2.13142 13.7467C2.03787 13.7808 1.95704 13.8428 1.89982 13.9244C1.8426 14.0059 1.81176 14.103 1.81144 14.2026C1.81112 14.3022 1.84134 14.3995 1.89803 14.4813L3.46303 16.8884L1.19003 18.6364C1.10741 18.693 1.04369 18.7731 1.00714 18.8663C0.970589 18.9596 0.962886 19.0617 0.985029 19.1594ZM4.39903 17.3913C4.49656 17.3141 4.56178 17.2032 4.58194 17.0804C4.60209 16.9576 4.57574 16.8317 4.50803 16.7274L3.39903 15.0044L5.41003 15.5044C5.53194 15.5328 5.66009 15.5145 5.76915 15.453C5.87821 15.3915 5.96024 15.2914 5.99903 15.1724L6.65303 13.1914L7.52003 15.0734C7.5729 15.1854 7.6655 15.2738 7.77986 15.3215C7.89423 15.3692 8.02222 15.3727 8.13903 15.3314L10.085 14.6133L9.15403 16.4904C9.09951 16.6013 9.08804 16.7286 9.12183 16.8475C9.15563 16.9664 9.2323 17.0686 9.33703 17.1343L11.099 18.2084L9.07303 18.6343C8.95187 18.6617 8.84522 18.7332 8.77387 18.8348C8.70252 18.9365 8.67156 19.0611 8.68703 19.1844L8.94903 21.2344L7.35903 19.9173C7.26261 19.8379 7.13997 19.7975 7.01523 19.804C6.8905 19.8105 6.7727 19.8634 6.68503 19.9523L5.24403 21.4424L5.28403 19.3724C5.28463 19.2478 5.23873 19.1275 5.15531 19.0351C5.0719 18.9426 4.95697 18.8846 4.83303 18.8724L2.77303 18.6724L4.39903 17.3913Z" fill="#EA3A51"/>
</svg>
