<svg width="18" height="18" viewBox="0 0 18 18" fill="none" xmlns="http://www.w3.org/2000/svg">
<path d="M9 18C13.9706 18 18 13.9706 18 9C18 4.02944 13.9706 0 9 0C4.02944 0 0 4.02944 0 9C0 13.9706 4.02944 18 9 18Z" fill="#FF3E5B"/>
<path d="M7.06564 12.0007C6.89987 12.0007 6.74076 11.9355 6.62258 11.8192L4.55879 9.75542C4.49753 9.69794 4.44844 9.62874 4.41445 9.55192C4.38046 9.47509 4.36226 9.39222 4.36092 9.30823C4.35958 9.22423 4.37514 9.14082 4.40667 9.06296C4.4382 8.9851 4.48505 8.91436 4.54446 8.85496C4.60386 8.79556 4.67459 8.7487 4.75246 8.71717C4.83032 8.68564 4.91373 8.67009 4.99772 8.67142C5.08172 8.67276 5.16459 8.69097 5.24141 8.72496C5.31823 8.75895 5.38744 8.80803 5.44492 8.8693L7.05564 10.48L11.8786 5.72016C11.9365 5.66155 12.0055 5.61502 12.0816 5.58326C12.1576 5.55151 12.2392 5.53516 12.3216 5.53516C12.4041 5.53516 12.4857 5.55151 12.5617 5.58326C12.6378 5.61502 12.7068 5.66155 12.7647 5.72016C12.8808 5.83839 12.9459 5.99749 12.9459 6.16322C12.9459 6.32895 12.8808 6.48805 12.7647 6.60628L7.49871 11.8092C7.44346 11.8691 7.37652 11.9169 7.30204 11.9499C7.22755 11.9828 7.14709 12.0001 7.06564 12.0007Z" fill="white"/>
</svg>
